<svg width="148" height="70" viewBox="0 0 148 70" fill="none" xmlns="http://www.w3.org/2000/svg">
<path d="M16.4787 16.348C16.3764 15.3168 15.9375 14.5156 15.1619 13.9446C14.3864 13.3736 13.3338 13.0881 12.0043 13.0881C11.1009 13.0881 10.3381 13.2159 9.71591 13.4716C9.09375 13.7187 8.61648 14.0639 8.28409 14.5071C7.96023 14.9503 7.7983 15.4531 7.7983 16.0156C7.78125 16.4844 7.87926 16.8935 8.09233 17.2429C8.31392 17.5923 8.61648 17.8949 9 18.1506C9.38352 18.3977 9.8267 18.6151 10.3295 18.8026C10.8324 18.9815 11.3693 19.1349 11.9403 19.2628L14.2926 19.8253C15.4347 20.081 16.483 20.4219 17.4375 20.848C18.392 21.2741 19.2188 21.7983 19.9176 22.4205C20.6165 23.0426 21.1577 23.7756 21.5412 24.6193C21.9332 25.4631 22.1335 26.4304 22.142 27.5213C22.1335 29.1236 21.7244 30.5128 20.9148 31.6889C20.1136 32.8565 18.9545 33.7642 17.4375 34.4119C15.929 35.0511 14.1094 35.3707 11.9787 35.3707C9.86506 35.3707 8.02415 35.0469 6.45597 34.3991C4.89631 33.7514 3.67756 32.7926 2.79972 31.5227C1.9304 30.2443 1.47443 28.6634 1.43182 26.7798H6.78835C6.84801 27.6577 7.09943 28.3906 7.54261 28.9787C7.99432 29.5582 8.59517 29.9972 9.34517 30.2955C10.1037 30.5852 10.9602 30.7301 11.9148 30.7301C12.8523 30.7301 13.6662 30.5937 14.3565 30.321C15.0554 30.0483 15.5966 29.669 15.9801 29.1832C16.3636 28.6974 16.5554 28.1392 16.5554 27.5085C16.5554 26.9205 16.3807 26.4261 16.0312 26.0256C15.6903 25.625 15.1875 25.2841 14.5227 25.0028C13.8665 24.7216 13.0611 24.4659 12.1065 24.2358L9.25568 23.5199C7.0483 22.983 5.3054 22.1435 4.02699 21.0014C2.74858 19.8594 2.11364 18.321 2.12216 16.3864C2.11364 14.8011 2.53551 13.4162 3.38778 12.2315C4.24858 11.0469 5.42898 10.1222 6.92898 9.45739C8.42898 8.79261 10.1335 8.46023 12.0426 8.46023C13.9858 8.46023 15.6818 8.79261 17.1307 9.45739C18.5881 10.1222 19.7216 11.0469 20.5312 12.2315C21.3409 13.4162 21.7585 14.7884 21.7841 16.348H16.4787ZM36.2077 15.3636V19.4545H24.3825V15.3636H36.2077ZM27.0671 10.6591H32.5131V28.9659C32.5131 29.4687 32.5898 29.8608 32.7433 30.142C32.8967 30.4148 33.1097 30.6065 33.3825 30.7173C33.6637 30.8281 33.9876 30.8835 34.354 30.8835C34.6097 30.8835 34.8654 30.8622 35.1211 30.8196C35.3768 30.7685 35.5728 30.7301 35.7092 30.7045L36.5657 34.7571C36.293 34.8423 35.9094 34.9403 35.4151 35.0511C34.9208 35.1705 34.32 35.2429 33.6126 35.2685C32.3001 35.3196 31.1495 35.1449 30.1609 34.7443C29.1808 34.3437 28.418 33.7216 27.8725 32.8778C27.3271 32.0341 27.0586 30.9687 27.0671 29.6818V10.6591ZM52.3477 26.6392V15.3636H57.7937V35H52.565V31.4332H52.3604C51.9173 32.5838 51.18 33.5085 50.1488 34.2074C49.1261 34.9062 47.8775 35.2557 46.4031 35.2557C45.0906 35.2557 43.9357 34.9574 42.9386 34.3608C41.9414 33.7642 41.1616 32.9162 40.5991 31.8168C40.0451 30.7173 39.7638 29.4006 39.7553 27.8665V15.3636H45.2013V26.8949C45.2099 28.054 45.521 28.9702 46.1346 29.6435C46.7482 30.3168 47.5707 30.6534 48.6019 30.6534C49.2582 30.6534 49.8718 30.5043 50.4428 30.206C51.0138 29.8991 51.4741 29.4474 51.8235 28.8509C52.1815 28.2543 52.3562 27.517 52.3477 26.6392ZM69.3857 35.3196C67.8942 35.3196 66.5433 34.9361 65.3331 34.169C64.1314 33.3935 63.1768 32.2557 62.4695 30.7557C61.7706 29.2472 61.4212 27.3977 61.4212 25.2074C61.4212 22.9574 61.7834 21.0866 62.5078 19.5952C63.2322 18.0952 64.1953 16.9744 65.397 16.233C66.6072 15.483 67.9325 15.108 69.3729 15.108C70.4723 15.108 71.3885 15.2955 72.1214 15.6705C72.8629 16.0369 73.4595 16.4972 73.9112 17.0511C74.3714 17.5966 74.7209 18.1335 74.9595 18.6619H75.1257V8.81818H80.559V35H75.1896V31.8551H74.9595C74.7038 32.4006 74.3416 32.9418 73.8729 33.4787C73.4126 34.0071 72.8118 34.446 72.0703 34.7955C71.3374 35.1449 70.4425 35.3196 69.3857 35.3196ZM71.1115 30.9858C71.9893 30.9858 72.7308 30.7472 73.3359 30.2699C73.9496 29.7841 74.4183 29.1065 74.7422 28.2372C75.0746 27.3679 75.2408 26.3494 75.2408 25.1818C75.2408 24.0142 75.0788 23 74.755 22.1392C74.4311 21.2784 73.9624 20.6136 73.3487 20.1449C72.7351 19.6761 71.9893 19.4418 71.1115 19.4418C70.2166 19.4418 69.4624 19.6847 68.8487 20.1705C68.2351 20.6562 67.7706 21.3295 67.4553 22.1903C67.1399 23.0511 66.9822 24.0483 66.9822 25.1818C66.9822 26.3239 67.1399 27.3338 67.4553 28.2116C67.7791 29.081 68.2436 29.7628 68.8487 30.2571C69.4624 30.7429 70.2166 30.9858 71.1115 30.9858ZM85.0366 35V15.3636H90.4826V35H85.0366ZM87.7724 12.8324C86.9627 12.8324 86.2681 12.5639 85.6886 12.027C85.1175 11.4815 84.832 10.8295 84.832 10.071C84.832 9.32102 85.1175 8.67756 85.6886 8.14062C86.2681 7.59517 86.9627 7.32244 87.7724 7.32244C88.582 7.32244 89.2724 7.59517 89.8434 8.14062C90.4229 8.67756 90.7127 9.32102 90.7127 10.071C90.7127 10.8295 90.4229 11.4815 89.8434 12.027C89.2724 12.5639 88.582 12.8324 87.7724 12.8324ZM103.717 35.3835C101.732 35.3835 100.014 34.9616 98.5653 34.1179C97.125 33.2656 96.0128 32.081 95.2287 30.5639C94.4446 29.0384 94.0526 27.2699 94.0526 25.2585C94.0526 23.2301 94.4446 21.4574 95.2287 19.9403C96.0128 18.4148 97.125 17.2301 98.5653 16.3864C100.014 15.5341 101.732 15.108 103.717 15.108C105.703 15.108 107.416 15.5341 108.857 16.3864C110.305 17.2301 111.422 18.4148 112.206 19.9403C112.99 21.4574 113.382 23.2301 113.382 25.2585C113.382 27.2699 112.99 29.0384 112.206 30.5639C111.422 32.081 110.305 33.2656 108.857 34.1179C107.416 34.9616 105.703 35.3835 103.717 35.3835ZM103.743 31.1648C104.646 31.1648 105.401 30.9091 106.006 30.3977C106.611 29.8778 107.067 29.1705 107.374 28.2756C107.689 27.3807 107.847 26.3622 107.847 25.2202C107.847 24.0781 107.689 23.0597 107.374 22.1648C107.067 21.2699 106.611 20.5625 106.006 20.0426C105.401 19.5227 104.646 19.2628 103.743 19.2628C102.831 19.2628 102.064 19.5227 101.442 20.0426C100.828 20.5625 100.364 21.2699 100.048 22.1648C99.7415 23.0597 99.5881 24.0781 99.5881 25.2202C99.5881 26.3622 99.7415 27.3807 100.048 28.2756C100.364 29.1705 100.828 29.8778 101.442 30.3977C102.064 30.9091 102.831 31.1648 103.743 31.1648ZM133.028 33.581V15.4787H137.605V33.581H133.028ZM126.265 26.8182V22.2415H144.368V26.8182H126.265Z" fill="white"/>
<path d="M16.4787 53.652C16.3764 54.6832 15.9375 55.4844 15.1619 56.0554C14.3864 56.6264 13.3338 56.9119 12.0043 56.9119C11.1009 56.9119 10.3381 56.7841 9.71591 56.5284C9.09375 56.2812 8.61648 55.9361 8.28409 55.4929C7.96023 55.0497 7.7983 54.5469 7.7983 53.9844C7.78125 53.5156 7.87926 53.1065 8.09233 52.7571C8.31392 52.4077 8.61648 52.1051 9 51.8494C9.38352 51.6023 9.8267 51.3849 10.3295 51.1974C10.8324 51.0185 11.3693 50.8651 11.9403 50.7372L14.2926 50.1747C15.4347 49.919 16.483 49.5781 17.4375 49.152C18.392 48.7259 19.2188 48.2017 19.9176 47.5795C20.6165 46.9574 21.1577 46.2244 21.5412 45.3807C21.9332 44.5369 22.1335 43.5696 22.142 42.4787C22.1335 40.8764 21.7244 39.4872 20.9148 38.3111C20.1136 37.1435 18.9545 36.2358 17.4375 35.5881C15.929 34.9489 14.1094 34.6293 11.9787 34.6293C9.86506 34.6293 8.02415 34.9531 6.45597 35.6009C4.89631 36.2486 3.67756 37.2074 2.79972 38.4773C1.9304 39.7557 1.47443 41.3366 1.43182 43.2202H6.78835C6.84801 42.3423 7.09943 41.6094 7.54261 41.0213C7.99432 40.4418 8.59517 40.0028 9.34517 39.7045C10.1037 39.4148 10.9602 39.2699 11.9148 39.2699C12.8523 39.2699 13.6662 39.4063 14.3565 39.679C15.0554 39.9517 15.5966 40.331 15.9801 40.8168C16.3636 41.3026 16.5554 41.8608 16.5554 42.4915C16.5554 43.0795 16.3807 43.5739 16.0312 43.9744C15.6903 44.375 15.1875 44.7159 14.5227 44.9972C13.8665 45.2784 13.0611 45.5341 12.1065 45.7642L9.25568 46.4801C7.0483 47.017 5.3054 47.8565 4.02699 48.9986C2.74858 50.1406 2.11364 51.679 2.12216 53.6136C2.11364 55.1989 2.53551 56.5838 3.38778 57.7685C4.24858 58.9531 5.42898 59.8778 6.92898 60.5426C8.42898 61.2074 10.1335 61.5398 12.0426 61.5398C13.9858 61.5398 15.6818 61.2074 17.1307 60.5426C18.5881 59.8778 19.7216 58.9531 20.5312 57.7685C21.3409 56.5838 21.7585 55.2116 21.7841 53.652H16.4787ZM36.2077 54.6364V50.5455H24.3825V54.6364H36.2077ZM27.0671 59.3409H32.5131V41.0341C32.5131 40.5313 32.5898 40.1392 32.7433 39.858C32.8967 39.5852 33.1097 39.3935 33.3825 39.2827C33.6637 39.1719 33.9876 39.1165 34.354 39.1165C34.6097 39.1165 34.8654 39.1378 35.1211 39.1804C35.3768 39.2315 35.5728 39.2699 35.7092 39.2955L36.5657 35.2429C36.293 35.1577 35.9094 35.0597 35.4151 34.9489C34.9208 34.8295 34.32 34.7571 33.6126 34.7315C32.3001 34.6804 31.1495 34.8551 30.1609 35.2557C29.1808 35.6563 28.418 36.2784 27.8725 37.1222C27.3271 37.9659 27.0586 39.0313 27.0671 40.3182V59.3409ZM52.3477 43.3608V54.6364H57.7937V35H52.565V38.5668H52.3604C51.9173 37.4162 51.18 36.4915 50.1488 35.7926C49.1261 35.0938 47.8775 34.7443 46.4031 34.7443C45.0906 34.7443 43.9357 35.0426 42.9386 35.6392C41.9414 36.2358 41.1616 37.0838 40.5991 38.1832C40.0451 39.2827 39.7638 40.5994 39.7553 42.1335V54.6364H45.2013V43.1051C45.2099 41.946 45.521 41.0298 46.1346 40.3565C46.7482 39.6832 47.5707 39.3466 48.6019 39.3466C49.2582 39.3466 49.8718 39.4957 50.4428 39.794C51.0138 40.1009 51.4741 40.5526 51.8235 41.1491C52.1815 41.7457 52.3562 42.483 52.3477 43.3608ZM69.3857 34.6804C67.8942 34.6804 66.5433 35.0639 65.3331 35.831C64.1314 36.6065 63.1768 37.7443 62.4695 39.2443C61.7706 40.7528 61.4212 42.6023 61.4212 44.7926C61.4212 47.0426 61.7834 48.9134 62.5078 50.4048C63.2322 51.9048 64.1953 53.0256 65.397 53.767C66.6072 54.517 67.9325 54.892 69.3729 54.892C70.4723 54.892 71.3885 54.7045 72.1214 54.3295C72.8629 53.9631 73.4595 53.5028 73.9112 52.9489C74.3714 52.4034 74.7209 51.8665 74.9595 51.3381H75.1257V61.1818H80.559V35H75.1896V38.1449H74.9595C74.7038 37.5994 74.3416 37.0582 73.8729 36.5213C73.4126 35.9929 72.8118 35.554 72.0703 35.2045C71.3374 34.8551 70.4425 34.6804 69.3857 34.6804ZM71.1115 39.0142C71.9893 39.0142 72.7308 39.2528 73.3359 39.7301C73.9496 40.2159 74.4183 40.8935 74.7422 41.7628C75.0746 42.6321 75.2408 43.6506 75.2408 44.8182C75.2408 45.9858 75.0788 47 74.755 47.8608C74.4311 48.7216 73.9624 49.3864 73.3487 49.8551C72.7351 50.3239 71.9893 50.5582 71.1115 50.5582C70.2166 50.5582 69.4624 50.3153 68.8487 49.8295C68.2351 49.3438 67.7706 48.6705 67.4553 47.8097C67.1399 46.9489 66.9822 45.9517 66.9822 44.8182C66.9822 43.6761 67.1399 42.6662 67.4553 41.7884C67.7791 40.919 68.2436 40.2372 68.8487 39.7429C69.4624 39.2571 70.2166 39.0142 71.1115 39.0142ZM85.0366 35V54.6364H90.4826V35H85.0366ZM87.7724 57.1676C86.9627 57.1676 86.2681 57.4361 85.6886 57.973C85.1175 58.5185 84.832 59.1705 84.832 59.929C84.832 60.679 85.1175 61.3224 85.6886 61.8594C86.2681 62.4048 86.9627 62.6776 87.7724 62.6776C88.582 62.6776 89.2724 62.4048 89.8434 61.8594C90.4229 61.3224 90.7127 60.679 90.7127 59.929C90.7127 59.1705 90.4229 58.5185 89.8434 57.973C89.2724 57.4361 88.582 57.1676 87.7724 57.1676ZM103.717 34.6165C101.732 34.6165 100.014 35.0384 98.5653 35.8821C97.125 36.7344 96.0128 37.919 95.2287 39.4361C94.4446 40.9616 94.0526 42.7301 94.0526 44.7415C94.0526 46.7699 94.4446 48.5426 95.2287 50.0597C96.0128 51.5852 97.125 52.7699 98.5653 53.6136C100.014 54.4659 101.732 54.892 103.717 54.892C105.703 54.892 107.416 54.4659 108.857 53.6136C110.305 52.7699 111.422 51.5852 112.206 50.0597C112.99 48.5426 113.382 46.7699 113.382 44.7415C113.382 42.7301 112.99 40.9616 112.206 39.4361C111.422 37.919 110.305 36.7344 108.857 35.8821C107.416 35.0384 105.703 34.6165 103.717 34.6165ZM103.743 38.8352C104.646 38.8352 105.401 39.0909 106.006 39.6023C106.611 40.1222 107.067 40.8295 107.374 41.7244C107.689 42.6193 107.847 43.6378 107.847 44.7798C107.847 45.9219 107.689 46.9403 107.374 47.8352C107.067 48.7301 106.611 49.4375 106.006 49.9574C105.401 50.4773 104.646 50.7372 103.743 50.7372C102.831 50.7372 102.064 50.4773 101.442 49.9574C100.828 49.4375 100.364 48.7301 100.048 47.8352C99.7415 46.9403 99.5881 45.9219 99.5881 44.7798C99.5881 43.6378 99.7415 42.6193 100.048 41.7244C100.364 40.8295 100.828 40.1222 101.442 39.6023C102.064 39.0909 102.831 38.8352 103.743 38.8352ZM133.028 36.419V54.5213H137.605V36.419H133.028ZM126.265 43.1818V47.7585H144.368V43.1818H126.265Z" fill="white" fill-opacity="0.12"/>
</svg>
